<svg id="visual" viewBox="0 0 900 600" width="900" height="600" xmlns="http://www.w3.org/2000/svg" xmlns:xlink="http://www.w3.org/1999/xlink" version="1.1"><rect x="0" y="0" width="900" height="600" fill="#141414"></rect><defs><linearGradient id="grad1_0" x1="33.3%" y1="0%" x2="100%" y2="100%"><stop offset="20%" stop-color="#141414" stop-opacity="1"></stop><stop offset="80%" stop-color="#141414" stop-opacity="1"></stop></linearGradient></defs><defs><linearGradient id="grad2_0" x1="0%" y1="0%" x2="66.7%" y2="100%"><stop offset="20%" stop-color="#141414" stop-opacity="1"></stop><stop offset="80%" stop-color="#141414" stop-opacity="1"></stop></linearGradient></defs><g transform="translate(900, 0)"><path d="M0 270.4C-32 253.2 -63.9 236 -90.7 219C-117.5 202 -139.1 185.2 -167.6 167.6C-196.1 150 -231.5 131.6 -249.8 103.5C-268.1 75.4 -269.3 37.7 -270.4 0L0 0Z" fill="#0082fb"></path></g><g transform="translate(0, 600)"><path d="M0 -270.4C36.9 -268.2 73.8 -265.9 103.5 -249.8C133.1 -233.7 155.5 -203.8 176.8 -176.8C198.1 -149.8 218.3 -125.8 233.7 -96.8C249.2 -67.9 259.8 -33.9 270.4 0L0 0Z" fill="#0082fb"></path></g></svg>